<svg aria-hidden="true" style="position: absolute; width: 0; height: 0; overflow: hidden;" version="1.1"
  xmlns="http://www.w3.org/2000/svg"
  xmlns:xlink="http://www.w3.org/1999/xlink">
  <defs>
    <symbol id="icon-github" viewBox="0 0 32 32">
      <path d="M16 0.396c-8.84 0-16 7.164-16 16 0 7.071 4.584 13.067 10.94 15.18 0.8 0.151 1.093-0.344 1.093-0.769 0-0.38-0.013-1.387-0.020-2.72-4.451 0.965-5.389-2.147-5.389-2.147-0.728-1.847-1.78-2.34-1.78-2.34-1.449-0.992 0.112-0.972 0.112-0.972 1.607 0.112 2.451 1.648 2.451 1.648 1.427 2.447 3.745 1.74 4.66 1.331 0.144-1.035 0.556-1.74 1.013-2.14-3.553-0.4-7.288-1.776-7.288-7.907 0-1.747 0.62-3.173 1.647-4.293-0.18-0.404-0.72-2.031 0.14-4.235 0 0 1.34-0.429 4.4 1.64 1.28-0.356 2.64-0.532 4-0.54 1.36 0.008 2.72 0.184 4 0.54 3.040-2.069 4.38-1.64 4.38-1.64 0.86 2.204 0.32 3.831 0.16 4.235 1.020 1.12 1.64 2.547 1.64 4.293 0 6.147-3.74 7.5-7.3 7.893 0.56 0.48 1.080 1.461 1.080 2.96 0 2.141-0.020 3.861-0.020 4.381 0 0.42 0.28 0.92 1.1 0.76 6.401-2.099 10.981-8.099 10.981-15.159 0-8.836-7.164-16-16-16z"></path>
    </symbol>
    <symbol id="icon-moon-stars" viewBox="0 0 32 32">
      <path d="M18.214 11.762l-1.214 3.238-1.214-3.238-2.286-0.762 2.286-0.762 1.214-3.238 1.214 3.238 2.286 0.762-2.286 0.762zM22.214 18.238l-1.214-3.238-1.214 3.238-2.286 0.762 2.286 0.762 1.214 3.238 1.214-3.238 2.286-0.762-2.286-0.762zM14.836 22.331v0c0.088-0.351 0.142-0.716 0.158-1.091-0.468 0.165-0.971 0.254-1.495 0.254-2.485 0-4.5-2.015-4.5-4.5 0-0.524 0.090-1.027 0.254-1.495-0.374 0.016-0.739 0.070-1.091 0.158-2.392 0.597-4.163 2.76-4.163 5.336 0 3.038 2.462 5.5 5.5 5.5 2.577 0 4.739-1.772 5.337-4.163zM5 20.995c0-1.961 1.255-3.63 3.005-4.246-0.004 0.081-0.005 0.163-0.005 0.246 0 3.038 2.462 5.5 5.5 5.5 0.082 0 0.164-0.002 0.246-0.005-0.616 1.751-2.284 3.005-4.246 3.005-2.485 0-4.5-2.015-4.5-4.5v0zM26.867 12.429l1.633 0.571-1.633 0.571-0.867 2.429-0.867-2.429-1.633-0.571 1.633-0.571 0.867-2.429 0.867 2.429z"></path>
    </symbol>
    <symbol id="icon-moon-stars1" viewBox="0 0 32 32">
      <path d="M18.214 11.762l-1.214 3.238-1.214-3.238-2.286-0.762 2.286-0.762 1.214-3.238 1.214 3.238 2.286 0.762-2.286 0.762zM22.214 18.238l-1.214-3.238-1.214 3.238-2.286 0.762 2.286 0.762 1.214 3.238 1.214-3.238 2.286-0.762-2.286-0.762zM14.836 22.331c-0.597 2.392-2.76 4.163-5.336 4.163-3.038 0-5.5-2.462-5.5-5.5 0-2.577 1.772-4.739 4.163-5.337 0.351-0.088 0.716-0.142 1.091-0.158-0.165 0.468-0.254 0.971-0.254 1.495 0 2.485 2.015 4.5 4.5 4.5 0.524 0 1.027-0.090 1.495-0.254-0.016 0.375-0.070 0.739-0.158 1.091v0zM26.867 12.429l1.633 0.571-1.633 0.571-0.867 2.429-0.867-2.429-1.633-0.571 1.633-0.571 0.867-2.429 0.867 2.429z"></path>
    </symbol>
    <symbol id="icon-moon" viewBox="0 0 32 32">
      <path d="M21.837 17.831v0c0.088-0.351 0.142-0.716 0.158-1.091-0.468 0.165-0.971 0.254-1.495 0.254-2.485 0-4.5-2.015-4.5-4.5 0-0.524 0.090-1.027 0.254-1.495-0.374 0.016-0.739 0.070-1.091 0.158-2.392 0.597-4.164 2.76-4.164 5.336 0 3.038 2.462 5.5 5.5 5.5 2.577 0 4.739-1.772 5.337-4.163zM12 16.495c0-1.961 1.255-3.63 3.005-4.246-0.004 0.082-0.005 0.163-0.005 0.246 0 3.038 2.462 5.5 5.5 5.5 0.082 0 0.164-0.002 0.246-0.005-0.616 1.751-2.285 3.005-4.246 3.005-2.485 0-4.5-2.015-4.5-4.5v0z"></path>
    </symbol>
    <symbol id="icon-moon1" viewBox="0 0 32 32">
      <path d="M21.837 17.831c-0.597 2.392-2.76 4.163-5.337 4.163-3.038 0-5.5-2.462-5.5-5.5 0-2.577 1.772-4.739 4.163-5.337 0.351-0.088 0.716-0.142 1.091-0.158-0.165 0.468-0.254 0.971-0.254 1.495 0 2.485 2.015 4.5 4.5 4.5 0.524 0 1.027-0.090 1.495-0.254-0.016 0.375-0.070 0.739-0.158 1.091z"></path>
    </symbol>
    <symbol id="icon-sun" viewBox="0 0 32 32">
      <path d="M16.529 22v0c-3.038 0-5.5-2.462-5.5-5.5s2.462-5.5 5.5-5.5c3.038 0 5.5 2.462 5.5 5.5s-2.462 5.5-5.5 5.5zM16.529 21c2.485 0 4.5-2.015 4.5-4.5s-2.015-4.5-4.5-4.5c-2.485 0-4.5 2.015-4.5 4.5s2.015 4.5 4.5 4.5v0zM16.529 7c-0.276 0-0.5 0.216-0.5 0.495v2.009c0 0.274 0.232 0.495 0.5 0.495 0.276 0 0.5-0.216 0.5-0.495v-2.009c0-0.274-0.232-0.495-0.5-0.495v0zM23.267 9.791c-0.195-0.195-0.506-0.201-0.704-0.003l-1.421 1.421c-0.193 0.193-0.186 0.514 0.003 0.704 0.195 0.195 0.506 0.201 0.704 0.003l1.421-1.421c0.193-0.193 0.186-0.514-0.003-0.704v0zM26.058 16.529c0-0.276-0.216-0.5-0.495-0.5h-2.009c-0.274 0-0.495 0.232-0.495 0.5 0 0.276 0.216 0.5 0.495 0.5h2.009c0.274 0 0.495-0.232 0.495-0.5v0zM23.267 23.267c0.195-0.195 0.201-0.506 0.003-0.704l-1.421-1.421c-0.193-0.193-0.514-0.186-0.704 0.003-0.195 0.195-0.201 0.506-0.003 0.704l1.421 1.421c0.193 0.193 0.514 0.186 0.704-0.003v0zM16.529 26.058c0.276 0 0.5-0.216 0.5-0.495v-2.009c0-0.274-0.232-0.495-0.5-0.495-0.276 0-0.5 0.216-0.5 0.495v2.009c0 0.274 0.232 0.495 0.5 0.495v0zM9.791 23.267c0.195 0.195 0.506 0.201 0.704 0.003l1.421-1.421c0.193-0.193 0.186-0.514-0.003-0.704-0.195-0.195-0.506-0.201-0.704-0.003l-1.421 1.421c-0.193 0.193-0.186 0.514 0.003 0.704v0zM7 16.529c0 0.276 0.216 0.5 0.495 0.5h2.009c0.274 0 0.495-0.232 0.495-0.5 0-0.276-0.216-0.5-0.495-0.5h-2.009c-0.274 0-0.495 0.232-0.495 0.5v0zM9.791 9.791c-0.195 0.195-0.201 0.506-0.003 0.704l1.421 1.421c0.193 0.193 0.514 0.186 0.704-0.003 0.195-0.195 0.201-0.506 0.003-0.704l-1.421-1.421c-0.193-0.193-0.514-0.186-0.704 0.003v0z"></path>
    </symbol>
    <symbol id="icon-sun1" viewBox="0 0 32 32">
      <path d="M16.529 22c3.038 0 5.5-2.462 5.5-5.5s-2.462-5.5-5.5-5.5c-3.038 0-5.5 2.462-5.5 5.5s2.462 5.5 5.5 5.5v0zM16.529 7c-0.276 0-0.5 0.216-0.5 0.495v2.009c0 0.274 0.232 0.495 0.5 0.495 0.276 0 0.5-0.216 0.5-0.495v-2.009c0-0.274-0.232-0.495-0.5-0.495v0zM23.267 9.791c-0.195-0.195-0.506-0.201-0.704-0.003l-1.421 1.421c-0.193 0.193-0.186 0.514 0.003 0.704 0.195 0.195 0.506 0.201 0.704 0.003l1.421-1.421c0.193-0.193 0.186-0.514-0.003-0.704v0zM26.058 16.529c0-0.276-0.216-0.5-0.495-0.5h-2.009c-0.274 0-0.495 0.232-0.495 0.5 0 0.276 0.216 0.5 0.495 0.5h2.009c0.274 0 0.495-0.232 0.495-0.5v0zM23.267 23.267c0.195-0.195 0.201-0.506 0.003-0.704l-1.421-1.421c-0.193-0.193-0.514-0.186-0.704 0.003-0.195 0.195-0.201 0.506-0.003 0.704l1.421 1.421c0.193 0.193 0.514 0.186 0.704-0.003v0zM16.529 26.058c0.276 0 0.5-0.216 0.5-0.495v-2.009c0-0.274-0.232-0.495-0.5-0.495-0.276 0-0.5 0.216-0.5 0.495v2.009c0 0.274 0.232 0.495 0.5 0.495v0zM9.791 23.267c0.195 0.195 0.506 0.201 0.704 0.003l1.421-1.421c0.193-0.193 0.186-0.514-0.003-0.704-0.195-0.195-0.506-0.201-0.704-0.003l-1.421 1.421c-0.193 0.193-0.186 0.514 0.003 0.704v0zM7 16.529c0 0.276 0.216 0.5 0.495 0.5h2.009c0.274 0 0.495-0.232 0.495-0.5 0-0.276-0.216-0.5-0.495-0.5h-2.009c-0.274 0-0.495 0.232-0.495 0.5v0zM9.791 9.791c-0.195 0.195-0.201 0.506-0.003 0.704l1.421 1.421c0.193 0.193 0.514 0.186 0.704-0.003 0.195-0.195 0.201-0.506 0.003-0.704l-1.421-1.421c-0.193-0.193-0.514-0.186-0.704 0.003v0z"></path>
    </symbol>
    <symbol id="icon-sunrise" viewBox="0 0 32 32">
      <path d="M7.537 22c-0.281 0-0.508 0.232-0.508 0.5 0 0.276 0.227 0.5 0.508 0.5h6.075l2.917-2.5 2.917 2.5h6.075c0.281 0 0.508-0.232 0.508-0.5 0-0.276-0.227-0.5-0.508-0.5h-5.492l-3.5-3-3.5 3h-5.492zM21.978 20c0.015-0.165 0.022-0.331 0.022-0.5 0-3.038-2.462-5.5-5.5-5.5s-5.5 2.462-5.5 5.5c0 0.169 0.008 0.335 0.022 0.5h1.005c-0.018-0.164-0.027-0.331-0.027-0.5 0-2.485 2.015-4.5 4.5-4.5s4.5 2.015 4.5 4.5c0 0.169-0.009 0.336-0.027 0.5h1.005zM16.529 10c-0.276 0-0.5 0.216-0.5 0.495v2.009c0 0.274 0.232 0.495 0.5 0.495 0.276 0 0.5-0.216 0.5-0.495v-2.009c0-0.274-0.232-0.495-0.5-0.495v0 0zM23.267 12.791c-0.195-0.195-0.506-0.201-0.704-0.003l-1.421 1.421c-0.193 0.193-0.186 0.514 0.003 0.704 0.195 0.195 0.506 0.201 0.704 0.003l1.421-1.421c0.193-0.193 0.186-0.514-0.003-0.704v0 0zM26.058 19.529c0-0.276-0.216-0.5-0.495-0.5h-2.009c-0.274 0-0.495 0.232-0.495 0.5 0 0.276 0.216 0.5 0.495 0.5h2.009c0.274 0 0.495-0.232 0.495-0.5v0 0zM7 19.529c0 0.276 0.216 0.5 0.495 0.5h2.009c0.274 0 0.495-0.232 0.495-0.5 0-0.276-0.216-0.5-0.495-0.5h-2.009c-0.274 0-0.495 0.232-0.495 0.5v0 0zM9.791 12.791c-0.195 0.195-0.201 0.506-0.003 0.704l1.421 1.421c0.193 0.193 0.514 0.186 0.704-0.003 0.195-0.195 0.201-0.506 0.003-0.704l-1.421-1.421c-0.193-0.193-0.514-0.186-0.704 0.003v0 0z"></path>
    </symbol>
    <symbol id="icon-sunrise1" viewBox="0 0 32 32">
      <path d="M13.612 20h-2.561c-0.015-0.165-0.022-0.331-0.022-0.5 0-3.038 2.462-5.5 5.5-5.5s5.5 2.462 5.5 5.5c0 0.169-0.008 0.335-0.022 0.5v0h-2.561l-2.917-2.5-2.917 2.5zM16.529 10c-0.276 0-0.5 0.216-0.5 0.495v2.009c0 0.274 0.232 0.495 0.5 0.495 0.276 0 0.5-0.216 0.5-0.495v-2.009c0-0.274-0.232-0.495-0.5-0.495v0 0zM23.267 12.791c-0.195-0.195-0.506-0.201-0.704-0.003l-1.421 1.421c-0.193 0.193-0.186 0.514 0.003 0.704 0.195 0.195 0.506 0.201 0.704 0.003l1.421-1.421c0.193-0.193 0.186-0.514-0.003-0.704v0 0zM26.058 19.529c0-0.276-0.216-0.5-0.495-0.5h-2.009c-0.274 0-0.495 0.232-0.495 0.5 0 0.276 0.216 0.5 0.495 0.5h2.009c0.274 0 0.495-0.232 0.495-0.5v0 0zM7 19.529c0 0.276 0.216 0.5 0.495 0.5h2.009c0.274 0 0.495-0.232 0.495-0.5 0-0.276-0.216-0.5-0.495-0.5h-2.009c-0.274 0-0.495 0.232-0.495 0.5v0 0zM7.566 22c-0.281 0-0.508 0.232-0.508 0.5 0 0.276 0.227 0.5 0.508 0.5h6.075l2.917-2.5 2.917 2.5h6.075c0.281 0 0.508-0.232 0.508-0.5 0-0.276-0.227-0.5-0.508-0.5h-5.492l-3.5-3-3.5 3h-5.492zM9.791 12.791c-0.195 0.195-0.201 0.506-0.003 0.704l1.421 1.421c0.193 0.193 0.514 0.186 0.704-0.003 0.195-0.195 0.201-0.506 0.003-0.704l-1.421-1.421c-0.193-0.193-0.514-0.186-0.704 0.003v0 0z"></path>
    </symbol>
    <symbol id="icon-sunset" viewBox="0 0 32 32">
      <path d="M22.007 18c0.015-0.165 0.022-0.331 0.022-0.5 0-3.038-2.462-5.5-5.5-5.5s-5.5 2.462-5.5 5.5c0 0.169 0.008 0.335 0.022 0.5h1.005c-0.018-0.164-0.027-0.331-0.027-0.5 0-2.485 2.015-4.5 4.5-4.5s4.5 2.015 4.5 4.5c0 0.169-0.009 0.336-0.027 0.5h1.005zM16.529 8c-0.276 0-0.5 0.216-0.5 0.495v2.009c0 0.274 0.232 0.495 0.5 0.495 0.276 0 0.5-0.216 0.5-0.495v-2.009c0-0.274-0.232-0.495-0.5-0.495v0 0zM23.267 10.791c-0.195-0.195-0.506-0.201-0.704-0.003l-1.421 1.421c-0.193 0.193-0.186 0.514 0.003 0.704 0.195 0.195 0.506 0.201 0.704 0.003l1.421-1.421c0.193-0.193 0.186-0.514-0.003-0.704v0 0zM26.058 17.529c0-0.276-0.216-0.5-0.495-0.5h-2.009c-0.274 0-0.495 0.232-0.495 0.5 0 0.276 0.216 0.5 0.495 0.5h2.009c0.274 0 0.495-0.232 0.495-0.5v0 0zM7 17.529c0 0.276 0.216 0.5 0.495 0.5h2.009c0.274 0 0.495-0.232 0.495-0.5 0-0.276-0.216-0.5-0.495-0.5h-2.009c-0.274 0-0.495 0.232-0.495 0.5v0 0zM9.791 10.791c-0.195 0.195-0.201 0.506-0.003 0.704l1.421 1.421c0.193 0.193 0.514 0.186 0.704-0.003 0.195-0.195 0.201-0.506 0.003-0.704l-1.421-1.421c-0.193-0.193-0.514-0.186-0.704 0.003v0 0zM7.537 21c-0.281 0-0.508-0.232-0.508-0.5 0-0.276 0.227-0.5 0.508-0.5h6.075l2.917 2.5 2.917-2.5h6.075c0.281 0 0.508 0.232 0.508 0.5 0 0.276-0.227 0.5-0.508 0.5h-5.492l-3.5 3-3.5-3h-5.492z"></path>
    </symbol>
    <symbol id="icon-sunset1" viewBox="0 0 32 32">
      <path d="M21.978 18c0.015-0.165 0.022-0.331 0.022-0.5 0-3.038-2.462-5.5-5.5-5.5s-5.5 2.462-5.5 5.5c0 0.169 0.008 0.335 0.022 0.5h10.955zM16.5 8c-0.276 0-0.5 0.216-0.5 0.495v2.009c0 0.274 0.232 0.495 0.5 0.495 0.276 0 0.5-0.216 0.5-0.495v-2.009c0-0.274-0.232-0.495-0.5-0.495v0 0zM23.238 10.791c-0.195-0.195-0.506-0.201-0.704-0.003l-1.421 1.421c-0.193 0.193-0.186 0.514 0.003 0.704 0.195 0.195 0.506 0.201 0.704 0.003l1.421-1.421c0.193-0.193 0.186-0.514-0.003-0.704v0 0zM26.029 17.529c0-0.276-0.216-0.5-0.495-0.5h-2.009c-0.274 0-0.495 0.232-0.495 0.5 0 0.276 0.216 0.5 0.495 0.5h2.009c0.274 0 0.495-0.232 0.495-0.5v0 0zM6.971 17.529c0 0.276 0.216 0.5 0.495 0.5h2.009c0.274 0 0.495-0.232 0.495-0.5 0-0.276-0.216-0.5-0.495-0.5h-2.009c-0.274 0-0.495 0.232-0.495 0.5v0 0zM9.762 10.791c-0.195 0.195-0.201 0.506-0.003 0.704l1.421 1.421c0.193 0.193 0.514 0.186 0.704-0.003 0.195-0.195 0.201-0.506 0.003-0.704l-1.421-1.421c-0.193-0.193-0.514-0.186-0.704 0.003v0 0zM7.537 21c-0.281 0-0.508-0.232-0.508-0.5 0-0.276 0.227-0.5 0.508-0.5h6.075l2.917 2.5 2.917-2.5h6.075c0.281 0 0.508 0.232 0.508 0.5 0 0.276-0.227 0.5-0.508 0.5h-5.492l-3.5 3-3.5-3h-5.492z"></path>
    </symbol>
    <symbol id="icon-sunset2" viewBox="0 0 32 32">
      <path d="M22.007 20c0.015-0.165 0.022-0.331 0.022-0.5 0-3.038-2.462-5.5-5.5-5.5s-5.5 2.462-5.5 5.5c0 0.169 0.008 0.335 0.022 0.5h1.005c-0.018-0.164-0.027-0.331-0.027-0.5 0-2.485 2.015-4.5 4.5-4.5s4.5 2.015 4.5 4.5c0 0.169-0.009 0.336-0.027 0.5h1.005zM16.529 10c-0.276 0-0.5 0.216-0.5 0.495v2.009c0 0.274 0.232 0.495 0.5 0.495 0.276 0 0.5-0.216 0.5-0.495v-2.009c0-0.274-0.232-0.495-0.5-0.495v0zM23.267 12.791c-0.195-0.195-0.506-0.201-0.704-0.003l-1.421 1.421c-0.193 0.193-0.186 0.514 0.003 0.704 0.195 0.195 0.506 0.201 0.704 0.003l1.421-1.421c0.193-0.193 0.186-0.514-0.003-0.704v0zM26.058 19.529c0-0.276-0.216-0.5-0.495-0.5h-2.009c-0.274 0-0.495 0.232-0.495 0.5 0 0.276 0.216 0.5 0.495 0.5h2.009c0.274 0 0.495-0.232 0.495-0.5v0zM7 19.529c0 0.276 0.216 0.5 0.495 0.5h2.009c0.274 0 0.495-0.232 0.495-0.5 0-0.276-0.216-0.5-0.495-0.5h-2.009c-0.274 0-0.495 0.232-0.495 0.5v0zM9.791 12.791c-0.195 0.195-0.201 0.506-0.003 0.704l1.421 1.421c0.193 0.193 0.514 0.186 0.704-0.003 0.195-0.195 0.201-0.506 0.003-0.704l-1.421-1.421c-0.193-0.193-0.514-0.186-0.704 0.003v0zM7.537 22c-0.281 0-0.508 0.232-0.508 0.5v0c0 0.276 0.227 0.5 0.508 0.5h17.984c0.281 0 0.508-0.232 0.508-0.5v0c0-0.276-0.227-0.5-0.508-0.5h-17.984z"></path>
    </symbol>
    <symbol id="icon-sunset3" viewBox="0 0 32 32">
      <path d="M22.007 20c0.015-0.165 0.022-0.331 0.022-0.5 0-3.038-2.462-5.5-5.5-5.5s-5.5 2.462-5.5 5.5c0 0.169 0.008 0.335 0.022 0.5h10.955zM16.529 10c-0.276 0-0.5 0.216-0.5 0.495v2.009c0 0.274 0.232 0.495 0.5 0.495 0.276 0 0.5-0.216 0.5-0.495v-2.009c0-0.274-0.232-0.495-0.5-0.495v0zM23.267 12.791c-0.195-0.195-0.506-0.201-0.704-0.003l-1.421 1.421c-0.193 0.193-0.186 0.514 0.003 0.704 0.195 0.195 0.506 0.201 0.704 0.003l1.421-1.421c0.193-0.193 0.186-0.514-0.003-0.704v0zM26.058 19.529c0-0.276-0.216-0.5-0.495-0.5h-2.009c-0.274 0-0.495 0.232-0.495 0.5 0 0.276 0.216 0.5 0.495 0.5h2.009c0.274 0 0.495-0.232 0.495-0.5v0zM7 19.529c0 0.276 0.216 0.5 0.495 0.5h2.009c0.274 0 0.495-0.232 0.495-0.5 0-0.276-0.216-0.5-0.495-0.5h-2.009c-0.274 0-0.495 0.232-0.495 0.5v0zM9.791 12.791c-0.195 0.195-0.201 0.506-0.003 0.704l1.421 1.421c0.193 0.193 0.514 0.186 0.704-0.003 0.195-0.195 0.201-0.506 0.003-0.704l-1.421-1.421c-0.193-0.193-0.514-0.186-0.704 0.003v0zM7.537 22c-0.281 0-0.508 0.232-0.508 0.5v0c0 0.276 0.227 0.5 0.508 0.5h17.984c0.281 0 0.508-0.232 0.508-0.5v0c0-0.276-0.227-0.5-0.508-0.5h-17.984z"></path>
    </symbol>
    <symbol id="icon-sunset4" viewBox="0 0 32 32">
      <path d="M21.793 19c-0.653-2.308-2.775-4-5.293-4s-4.64 1.692-5.293 4h1.049c0.618-1.748 2.285-3 4.244-3s3.626 1.252 4.244 3h1.049zM16.5 11c-0.276 0-0.5 0.216-0.5 0.495v2.009c0 0.274 0.232 0.495 0.5 0.495 0.276 0 0.5-0.216 0.5-0.495v-2.009c0-0.274-0.232-0.495-0.5-0.495v0zM23.238 13.791c-0.195-0.195-0.506-0.201-0.704-0.003l-1.421 1.421c-0.193 0.193-0.186 0.514 0.003 0.704 0.195 0.195 0.506 0.201 0.704 0.003l1.421-1.421c0.193-0.193 0.186-0.514-0.003-0.704v0zM9.762 13.791c-0.195 0.195-0.201 0.506-0.003 0.704l1.421 1.421c0.193 0.193 0.514 0.186 0.704-0.003 0.195-0.195 0.201-0.506 0.003-0.704l-1.421-1.421c-0.193-0.193-0.514-0.186-0.704 0.003v0zM7.508 21c-0.281 0-0.508 0.232-0.508 0.5v0c0 0.276 0.227 0.5 0.508 0.5h17.984c0.281 0 0.508-0.232 0.508-0.5v0c0-0.276-0.227-0.5-0.508-0.5h-17.984z"></path>
    </symbol>
    <symbol id="icon-sunset5" viewBox="0 0 32 32">
      <path d="M21.793 19c-0.653-2.308-2.775-4-5.293-4s-4.64 1.692-5.293 4h10.586zM16.5 11c-0.276 0-0.5 0.216-0.5 0.495v2.009c0 0.274 0.232 0.495 0.5 0.495 0.276 0 0.5-0.216 0.5-0.495v-2.009c0-0.274-0.232-0.495-0.5-0.495v0zM23.238 13.791c-0.195-0.195-0.506-0.201-0.704-0.003l-1.421 1.421c-0.193 0.193-0.186 0.514 0.003 0.704 0.195 0.195 0.506 0.201 0.704 0.003l1.421-1.421c0.193-0.193 0.186-0.514-0.003-0.704v0zM9.762 13.791c-0.195 0.195-0.201 0.506-0.003 0.704l1.421 1.421c0.193 0.193 0.514 0.186 0.704-0.003 0.195-0.195 0.201-0.506 0.003-0.704l-1.421-1.421c-0.193-0.193-0.514-0.186-0.704 0.003v0zM7.508 21c-0.281 0-0.508 0.232-0.508 0.5v0c0 0.276 0.227 0.5 0.508 0.5h17.984c0.281 0 0.508-0.232 0.508-0.5v0c0-0.276-0.227-0.5-0.508-0.5h-17.984z"></path>
    </symbol>
    <symbol id="icon-sunglasses" viewBox="0 0 32 32">
      <path d="M18.010 14.967h10.976c0.030 0.355 0.008 0.709-0.023 1h-10.841c-0.086-0.313-0.147-0.665-0.112-1zM18.609 13.967c0.118-0.076 0.257-0.143 0.419-0.198 1.79-0.604 3.633-0.767 4.639-0.795s3.865-0.013 4.642 0.547c0.168 0.121 0.298 0.274 0.397 0.445h-10.097zM13.489 16.967c-0.103 0.286-0.277 0.647-0.494 1v0h-9.528c-0.108-0.3-0.203-0.66-0.272-1h10.294zM13.842 15.967h-10.798c-0.031-0.291-0.053-0.645-0.021-1h10.926c0.039 0.334-0.021 0.687-0.108 1zM12.187 18.967c-0.050 0.043-0.101 0.083-0.152 0.119-0.66 0.465-2.109 0.835-3.93 0.835-1.058 0-1.916-0.050-2.761-0.24-0.604-0.136-0.992-0.261-1.345-0.714h8.188zM13.305 13.967h-9.986c0.096-0.157 0.22-0.296 0.377-0.408 0.774-0.553 3.62-0.567 4.622-0.54s2.837 0.188 4.619 0.784c0.139 0.046 0.261 0.102 0.367 0.164zM28.546 17.967h-9.588c-0.214-0.354-0.385-0.715-0.486-1h10.342c-0.068 0.339-0.161 0.698-0.268 1zM28.030 18.967c-0.362 0.486-0.755 0.616-1.376 0.757-0.849 0.193-1.711 0.243-2.773 0.243-1.829 0-3.284-0.375-3.946-0.846-0.064-0.045-0.127-0.097-0.19-0.154h8.285zM15.059 12.975c-4.367-1.204-10.525-1.147-13.693-0.614-0.383 0.064-0.443 1.823-0.102 1.884 0.626 0.253 0.893 0.885 0.893 0.885s0.187 0.561 0.73 2.841c0.543 2.28 1.837 2.554 1.837 2.554s1.584 0.392 3.412 0.392c1.827 0 2.921-0.083 4.091-0.668s1.682-2.216 1.682-2.216c0 0 0.59-1.405 0.996-2.73 0.127-0.416 2.065-0.416 2.192 0 0.406 1.326 0.996 2.73 0.996 2.73s0.512 1.63 1.682 2.216c1.17 0.585 2.264 0.668 4.091 0.668s3.412-0.392 3.412-0.392c0 0 1.294-0.273 1.837-2.554s0.73-2.841 0.73-2.841c0 0 0.267-0.632 0.893-0.885 0.34-0.062 0.28-1.82-0.102-1.884-3.168-0.534-9.325-0.59-13.693 0.614-0.296 0.068-1.586 0.068-1.882 0v0z"></path>
    </symbol>
    <symbol id="icon-sunglasses1" viewBox="0 0 32 32">
      <path d="M15.018 12.975c-4.367-1.204-10.525-1.147-13.693-0.614-0.383 0.064-0.443 1.823-0.102 1.884 0.626 0.253 0.893 0.885 0.893 0.885s0.187 0.561 0.73 2.841c0.543 2.28 1.837 2.554 1.837 2.554s1.584 0.392 3.412 0.392c1.827 0 2.921-0.083 4.091-0.668s1.682-2.216 1.682-2.216c0 0 0.59-1.405 0.996-2.73 0.127-0.416 2.065-0.416 2.192 0 0.406 1.326 0.996 2.73 0.996 2.73s0.512 1.63 1.682 2.216c1.17 0.585 2.264 0.668 4.091 0.668s3.412-0.392 3.412-0.392c0 0 1.294-0.273 1.837-2.554s0.73-2.841 0.73-2.841c0 0 0.267-0.632 0.893-0.885 0.34-0.062 0.28-1.82-0.102-1.884-3.168-0.534-9.325-0.59-13.693 0.614-0.296 0.068-1.586 0.068-1.882 0z"></path>
    </symbol>
    <symbol id="icon-moonrise" viewBox="0 0 32 32">
      <path d="M19.566 19.682c0.858-0.732 1.489-1.722 1.771-2.851 0.088-0.351 0.142-0.716 0.158-1.091-0.468 0.165-0.971 0.254-1.495 0.254-2.485 0-4.5-2.015-4.5-4.5 0-0.524 0.090-1.027 0.254-1.495-0.374 0.016-0.739 0.070-1.091 0.158-2.392 0.597-4.163 2.76-4.163 5.336 0 1.919 0.983 3.608 2.472 4.592l0.787-0.689c-1.35-0.777-2.259-2.234-2.259-3.903 0-1.961 1.255-3.63 3.005-4.246-0.004 0.082-0.005 0.163-0.005 0.246 0 3.038 2.462 5.5 5.5 5.5 0.082 0 0.164-0.002 0.246-0.005-0.283 0.805-0.789 1.505-1.443 2.026l0.763 0.667zM7.508 22c-0.281 0-0.508 0.232-0.508 0.5 0 0.276 0.227 0.5 0.508 0.5h6.075l2.917-2.5 2.917 2.5h6.075c0.281 0 0.508-0.232 0.508-0.5 0-0.276-0.227-0.5-0.508-0.5h-5.492l-3.5-3-3.5 3h-5.492z"></path>
    </symbol>
    <symbol id="icon-moonrise1" viewBox="0 0 32 32">
      <path d="M19.339 19.433c0.719-0.701 1.247-1.597 1.498-2.602 0.088-0.351 0.142-0.716 0.158-1.091-0.468 0.165-0.971 0.254-1.495 0.254-2.485 0-4.5-2.015-4.5-4.5 0-0.524 0.090-1.027 0.254-1.495-0.374 0.016-0.739 0.070-1.091 0.158-2.392 0.597-4.163 2.76-4.163 5.336 0 2.023 1.092 3.791 2.719 4.746l3.781-3.241 2.839 2.433zM7.508 22c-0.281 0-0.508 0.232-0.508 0.5 0 0.276 0.227 0.5 0.508 0.5h6.075l2.917-2.5 2.917 2.5h6.075c0.281 0 0.508-0.232 0.508-0.5 0-0.276-0.227-0.5-0.508-0.5h-5.492l-3.5-3-3.5 3h-5.492z"></path>
    </symbol>
    <symbol id="icon-moonset" viewBox="0 0 32 32">
      <path d="M21.337 14.831v0c0.088-0.351 0.142-0.716 0.158-1.091-0.468 0.165-0.971 0.254-1.495 0.254-2.485 0-4.5-2.015-4.5-4.5 0-0.524 0.090-1.027 0.254-1.495-0.374 0.016-0.739 0.070-1.091 0.158-2.392 0.597-4.163 2.76-4.163 5.336 0 3.038 2.462 5.5 5.5 5.5 2.577 0 4.739-1.772 5.337-4.163zM11.5 13.495c0-1.961 1.255-3.63 3.005-4.246-0.004 0.082-0.005 0.163-0.005 0.246 0 3.038 2.462 5.5 5.5 5.5 0.082 0 0.164-0.002 0.246-0.005-0.616 1.751-2.285 3.005-4.246 3.005-2.485 0-4.5-2.015-4.5-4.5v0zM7.508 22c-0.281 0-0.508-0.232-0.508-0.5 0-0.276 0.227-0.5 0.508-0.5h6.075l2.917 2.5 2.917-2.5h6.075c0.281 0 0.508 0.232 0.508 0.5 0 0.276-0.227 0.5-0.508 0.5h-5.492l-3.5 3-3.5-3h-5.492z"></path>
    </symbol>
    <symbol id="icon-moonset1" viewBox="0 0 32 32">
      <path d="M21.307 15.331c-0.597 2.392-2.76 4.163-5.337 4.163-3.038 0-5.5-2.462-5.5-5.5 0-2.577 1.772-4.739 4.163-5.337 0.351-0.088 0.716-0.142 1.091-0.158-0.165 0.468-0.254 0.971-0.254 1.495 0 2.485 2.015 4.5 4.5 4.5 0.524 0 1.027-0.090 1.495-0.254-0.016 0.374-0.070 0.739-0.158 1.091v0zM7.508 22c-0.281 0-0.508-0.232-0.508-0.5 0-0.276 0.227-0.5 0.508-0.5h6.075l2.917 2.5 2.917-2.5h6.075c0.281 0 0.508 0.232 0.508 0.5 0 0.276-0.227 0.5-0.508 0.5h-5.492l-3.5 3-3.5-3h-5.492z"></path>
    </symbol>
    <symbol id="icon-half-moon" viewBox="0 0 32 32">
      <path d="M16 22v0c-3.314 0-6-2.686-6-6s2.686-6 6-6c3.314 0 6 2.686 6 6s-2.686 6-6 6zM16 21v-10c-2.761 0-5 2.239-5 5s2.239 5 5 5v0z"></path>
    </symbol>
    <symbol id="icon-half-moon1" viewBox="0 0 32 32">
      <path d="M16 22c3.314 0 6-2.686 6-6s-2.686-6-6-6c-3.314 0-6 2.686-6 6s2.686 6 6 6v0zM12 16c0-2.209 1.791-4 4-4v8c-2.209 0-4-1.791-4-4v0z"></path>
    </symbol>
    <symbol id="icon-gibbous-moon" viewBox="0 0 32 32">
      <path d="M16 11v0c1.657 0 3 2.239 3 5s-1.343 5-3 5c-2.761 0-5-2.239-5-5s2.239-5 5-5zM16 22c3.314 0 6-2.686 6-6s-2.686-6-6-6c-3.314 0-6 2.686-6 6s2.686 6 6 6v0z"></path>
    </symbol>
    <symbol id="icon-gibbous-moon1" viewBox="0 0 32 32">
      <path d="M16 12v0c1.105 0 2 1.791 2 4s-0.895 4-2 4c-2.209 0-4-1.791-4-4s1.791-4 4-4zM16 22c3.314 0 6-2.686 6-6s-2.686-6-6-6c-3.314 0-6 2.686-6 6s2.686 6 6 6v0z"></path>
    </symbol>
    <symbol id="icon-moon2" viewBox="0 0 32 32">
      <path d="M16 22v0c-3.314 0-6-2.686-6-6s2.686-6 6-6c3.314 0 6 2.686 6 6s-2.686 6-6 6zM16 21c2.761 0 5-2.239 5-5s-2.239-5-5-5c-2.761 0-5 2.239-5 5s2.239 5 5 5v0z"></path>
    </symbol>
    <symbol id="icon-moon3" viewBox="0 0 32 32">
      <path d="M16 22v0c-3.314 0-6-2.686-6-6s2.686-6 6-6c3.314 0 6 2.686 6 6s-2.686 6-6 6zM16 20c2.209 0 4-1.791 4-4s-1.791-4-4-4c-2.209 0-4 1.791-4 4s1.791 4 4 4v0z"></path>
    </symbol>
    <symbol id="icon-gibbous-moon2" viewBox="0 0 32 32">
      <path d="M16 11v0c-1.657 0-3 2.239-3 5s1.343 5 3 5c2.761 0 5-2.239 5-5s-2.239-5-5-5zM16 22c-3.314 0-6-2.686-6-6s2.686-6 6-6c3.314 0 6 2.686 6 6s-2.686 6-6 6v0z"></path>
    </symbol>
    <symbol id="icon-gibbous-moon3" viewBox="0 0 32 32">
      <path d="M16 12c2.209 0 4 1.791 4 4s-1.791 4-4 4c-1.105 0-2-1.791-2-4s0.895-4 2-4v0zM16 22c3.314 0 6-2.686 6-6s-2.686-6-6-6c-3.314 0-6 2.686-6 6s2.686 6 6 6v0z"></path>
    </symbol>
    <symbol id="icon-half-moon2" viewBox="0 0 32 32">
      <path d="M16 22v0c3.314 0 6-2.686 6-6s-2.686-6-6-6c-3.314 0-6 2.686-6 6s2.686 6 6 6zM16 21v-10c2.761 0 5 2.239 5 5s-2.239 5-5 5v0z"></path>
    </symbol>
    <symbol id="icon-half-moon3" viewBox="0 0 32 32">
      <path d="M16 22v0c-3.314 0-6-2.686-6-6s2.686-6 6-6c3.314 0 6 2.686 6 6s-2.686 6-6 6zM20 16c0-2.209-1.791-4-4-4v8c2.209 0 4-1.791 4-4v0z"></path>
    </symbol>
    <symbol id="icon-face-sunglasses" viewBox="0 0 32 32">
      <path d="M26.11 10.181v0c-2.442-0.275-6.483-0.245-9.42 0.491-0.064 0.013-0.127 0.025-0.19 0.035-0.063-0.010-0.126-0.021-0.19-0.035-2.937-0.736-6.978-0.765-9.42-0.491v0c2.056-3.121 5.593-5.181 9.61-5.181s7.554 2.060 9.61 5.181zM26.856 11.494c0.733 1.513 1.144 3.212 1.144 5.006 0 6.351-5.149 11.5-11.5 11.5s-11.5-5.149-11.5-11.5c0-1.794 0.411-3.493 1.144-5.006 0.015 0.014 0.031 0.023 0.049 0.026 0.459 0.169 0.655 0.59 0.655 0.59s0.137 0.374 0.535 1.894c0.398 1.52 1.347 1.702 1.347 1.702s1.162 0.261 2.502 0.261c1.34 0 2.142-0.055 3-0.446s1.233-1.477 1.233-1.477c0 0 0.432-0.937 0.73-1.82 0.045-0.134 0.163-0.225 0.304-0.284 0.14 0.058 0.259 0.15 0.304 0.284 0.298 0.884 0.73 1.82 0.73 1.82s0.375 1.087 1.233 1.477c0.858 0.39 1.66 0.446 3 0.446s2.502-0.261 2.502-0.261c0 0 0.949-0.182 1.347-1.702s0.535-1.894 0.535-1.894c0 0 0.196-0.421 0.655-0.59 0.018-0.003 0.034-0.012 0.049-0.026v0zM16.5 29c6.904 0 12.5-5.596 12.5-12.5s-5.596-12.5-12.5-12.5c-6.904 0-12.5 5.596-12.5 12.5s5.596 12.5 12.5 12.5v0zM16.481 22c-3.481 0-5.481-2-5.481-2v1c0 0 2 2 5.481 2s5.519-2 5.519-2v-1c0 0-2.037 2-5.519 2v0z"></path>
    </symbol>
    <symbol id="icon-face-sunglasses1" viewBox="0 0 32 32">
      <path d="M16.5 10.707c0.063-0.010 0.126-0.021 0.19-0.035 3.203-0.802 7.718-0.765 10.041-0.409 0.28 0.043 0.325 1.215 0.075 1.256-0.459 0.169-0.655 0.59-0.655 0.59s-0.137 0.374-0.535 1.894c-0.398 1.52-1.347 1.702-1.347 1.702s-1.162 0.261-2.502 0.261c-1.34 0-2.142-0.055-3-0.446s-1.233-1.477-1.233-1.477c0 0-0.432-0.937-0.73-1.82-0.045-0.134-0.163-0.225-0.304-0.284-0.14 0.058-0.259 0.15-0.304 0.284-0.298 0.884-0.73 1.82-0.73 1.82s-0.375 1.087-1.233 1.477c-0.858 0.39-1.66 0.446-3 0.446s-2.502-0.261-2.502-0.261c0 0-0.949-0.182-1.347-1.702s-0.535-1.894-0.535-1.894c0 0-0.196-0.421-0.655-0.59-0.249-0.041-0.205-1.213 0.075-1.256 2.323-0.356 6.839-0.393 10.041 0.409 0.064 0.013 0.127 0.025 0.19 0.035zM16.5 29c6.904 0 12.5-5.596 12.5-12.5s-5.596-12.5-12.5-12.5c-6.904 0-12.5 5.596-12.5 12.5s5.596 12.5 12.5 12.5zM16.481 22c3.481 0 5.519-2 5.519-2v1c0 0-2.037 2-5.519 2s-5.481-2-5.481-2v-1c0 0 2 2 5.481 2z"></path>
    </symbol>
    <symbol id="icon-smirking-face-sunglasses" viewBox="0 0 32 32">
      <path d="M26.11 10.181v0 0c-2.442-0.275-6.483-0.245-9.42 0.491-0.064 0.013-0.127 0.025-0.19 0.035-0.063-0.010-0.126-0.021-0.19-0.035-2.937-0.736-6.978-0.765-9.42-0.491v0c2.056-3.121 5.593-5.181 9.61-5.181s7.554 2.060 9.61 5.181zM26.856 11.494c0.733 1.513 1.144 3.212 1.144 5.006 0 6.351-5.149 11.5-11.5 11.5s-11.5-5.149-11.5-11.5c0-1.794 0.411-3.493 1.144-5.006 0.015 0.014 0.031 0.023 0.049 0.026 0.459 0.169 0.655 0.59 0.655 0.59s0.137 0.374 0.535 1.894c0.398 1.52 1.347 1.702 1.347 1.702s1.162 0.261 2.502 0.261c1.34 0 2.142-0.055 3-0.446s1.233-1.477 1.233-1.477c0 0 0.432-0.937 0.73-1.82 0.045-0.134 0.163-0.225 0.304-0.284 0.14 0.058 0.259 0.15 0.304 0.284 0.298 0.884 0.73 1.82 0.73 1.82s0.375 1.087 1.233 1.477c0.858 0.39 1.66 0.446 3 0.446s2.502-0.261 2.502-0.261c0 0 0.949-0.182 1.347-1.702s0.535-1.894 0.535-1.894c0 0 0.196-0.421 0.655-0.59 0.018-0.003 0.034-0.012 0.049-0.026v0 0zM16.5 29c6.904 0 12.5-5.596 12.5-12.5s-5.596-12.5-12.5-12.5c-6.904 0-12.5 5.596-12.5 12.5s5.596 12.5 12.5 12.5v0zM15.519 22h2.989c0.824 0 1.492-0.677 1.492-1.495v-0.505h1c0 0 0 0.5 0 1 0 1-1 2-2 2h-7v-1h3.519z"></path>
    </symbol>
    <symbol id="icon-smirking-face-sunglasses1" viewBox="0 0 32 32">
      <path d="M16.5 10.707v0c0.063-0.010 0.126-0.021 0.19-0.035 3.203-0.802 7.718-0.765 10.041-0.409 0.28 0.043 0.325 1.215 0.075 1.256-0.459 0.169-0.655 0.59-0.655 0.59s-0.137 0.374-0.535 1.894c-0.398 1.52-1.347 1.702-1.347 1.702s-1.162 0.261-2.502 0.261c-1.34 0-2.142-0.055-3-0.446s-1.233-1.477-1.233-1.477c0 0-0.432-0.937-0.73-1.82-0.045-0.134-0.163-0.225-0.304-0.284-0.14 0.058-0.259 0.15-0.304 0.284-0.298 0.884-0.73 1.82-0.73 1.82s-0.375 1.087-1.233 1.477c-0.858 0.39-1.66 0.446-3 0.446s-2.502-0.261-2.502-0.261c0 0-0.949-0.182-1.347-1.702s-0.535-1.894-0.535-1.894c0 0-0.196-0.421-0.655-0.59-0.249-0.041-0.205-1.213 0.075-1.256 2.323-0.356 6.839-0.393 10.041 0.409 0.064 0.013 0.127 0.025 0.19 0.035zM16.5 29c6.904 0 12.5-5.596 12.5-12.5s-5.596-12.5-12.5-12.5c-6.904 0-12.5 5.596-12.5 12.5s5.596 12.5 12.5 12.5zM15.519 22h2.989c0.824 0 1.492-0.677 1.492-1.495v-0.505h1c0 0 0 0.5 0 1 0 1-1 2-2 2h-7v-1h3.519z"></path>
    </symbol>
    <symbol id="icon-save" viewBox="0 0 20 20">
      <path d="M15.173 2h-11.173c-1.101 0-2 0.9-2 2v12c0 1.1 0.899 2 2 2h12c1.101 0 2-0.9 2-2v-10.873l-2.827-3.127zM14 8c0 0.549-0.45 1-1 1h-6c-0.55 0-1-0.451-1-1v-5h8v5zM13 4h-2v4h2v-4z"></path>
    </symbol>
    <symbol id="icon-help-with-circle" viewBox="0 0 20 20">
      <path d="M10 0.4c-5.302 0-9.6 4.298-9.6 9.6s4.298 9.6 9.6 9.6c5.301 0 9.6-4.298 9.6-9.601 0-5.301-4.299-9.599-9.6-9.599zM9.849 15.599h-0.051c-0.782-0.023-1.334-0.6-1.311-1.371 0.022-0.758 0.587-1.309 1.343-1.309l0.046 0.002c0.804 0.023 1.35 0.594 1.327 1.387-0.023 0.76-0.578 1.291-1.354 1.291zM13.14 9.068c-0.184 0.26-0.588 0.586-1.098 0.983l-0.562 0.387c-0.308 0.24-0.494 0.467-0.563 0.688-0.056 0.174-0.082 0.221-0.087 0.576v0.090h-2.145l0.006-0.182c0.027-0.744 0.045-1.184 0.354-1.547 0.485-0.568 1.555-1.258 1.6-1.287 0.154-0.115 0.283-0.246 0.379-0.387 0.225-0.311 0.324-0.555 0.324-0.793 0-0.334-0.098-0.643-0.293-0.916-0.188-0.266-0.545-0.398-1.061-0.398-0.512 0-0.863 0.162-1.072 0.496-0.216 0.341-0.325 0.7-0.325 1.067v0.092h-2.211l0.004-0.096c0.057-1.353 0.541-2.328 1.435-2.897 0.563-0.361 1.264-0.544 2.081-0.544 1.068 0 1.972 0.26 2.682 0.772 0.721 0.519 1.086 1.297 1.086 2.311-0.001 0.567-0.18 1.1-0.534 1.585z"></path>
    </symbol>
    <symbol id="icon-help" viewBox="0 0 20 20">
      <path d="M14.090 2.233c-1.14-0.822-2.572-1.233-4.296-1.233-1.311 0-2.418 0.289-3.317 0.868-1.427 0.906-2.185 2.445-2.277 4.615h3.307c0-0.633 0.185-1.24 0.553-1.828 0.369-0.586 0.995-0.879 1.878-0.879 0.898 0 1.517 0.238 1.854 0.713 0.339 0.477 0.508 1.004 0.508 1.582 0 0.504-0.252 0.965-0.557 1.383-0.167 0.244-0.387 0.469-0.661 0.674 0 0-1.793 1.15-2.58 2.074-0.456 0.535-0.497 1.338-0.538 2.488-0.002 0.082 0.029 0.252 0.315 0.252s2.316 0 2.571 0c0.256 0 0.309-0.189 0.312-0.274 0.018-0.418 0.064-0.633 0.141-0.875 0.144-0.457 0.538-0.855 0.979-1.199l0.91-0.627c0.822-0.641 1.477-1.166 1.767-1.578 0.494-0.676 0.842-1.51 0.842-2.5-0.001-1.615-0.571-2.832-1.711-3.656zM9.741 14.924c-1.139-0.035-2.079 0.754-2.115 1.99-0.035 1.234 0.858 2.051 1.998 2.084 1.189 0.035 2.104-0.727 2.141-1.963 0.034-1.236-0.834-2.076-2.024-2.111z"></path>
    </symbol>
    <symbol id="icon-image-inverted" viewBox="0 0 20 20">
      <path d="M18 3h-16c-0.553 0-1 0.447-1 1v12c0 0.552 0.447 1 1 1h16c0.553 0 1-0.448 1-1v-12c0-0.552-0.447-1-1-1zM13.25 6.5c0.69 0 1.25 0.56 1.25 1.25s-0.56 1.25-1.25 1.25-1.25-0.56-1.25-1.25 0.56-1.25 1.25-1.25zM4 14l3.314-7.619 3.769 6.102 3.231-1.605 1.686 3.122h-12z"></path>
    </symbol>
    <symbol id="icon-image" viewBox="0 0 20 20">
      <path d="M19 2h-18c-0.553 0-1 0.447-1 1v14c0 0.552 0.447 1 1 1h18c0.553 0 1-0.448 1-1v-14c0-0.552-0.447-1-1-1zM18 16h-16v-12h16v12zM14.315 10.877l-3.231 1.605-3.77-6.101-3.314 7.619h12l-1.685-3.123zM13.25 9c0.69 0 1.25-0.56 1.25-1.25s-0.56-1.25-1.25-1.25-1.25 0.56-1.25 1.25 0.56 1.25 1.25 1.25z"></path>
    </symbol>
    <symbol id="icon-images" viewBox="0 0 20 20">
      <path d="M17.125 6.17l-2.046-5.635c-0.151-0.416-0.595-0.637-0.989-0.492l-13.598 4.963c-0.394 0.144-0.593 0.597-0.441 1.013l2.156 5.941v-3.183c0-1.438 1.148-2.607 2.56-2.607h3.593l4.285-3.008 2.479 3.008h2.001zM19.238 8h-14.471c-0.42 0-0.762 0.334-0.762 0.777v9.42c0.001 0.444 0.343 0.803 0.762 0.803h14.471c0.42 0 0.762-0.359 0.762-0.803v-9.42c0-0.443-0.342-0.777-0.762-0.777zM18 17h-12v-2l1.984-4.018 2.768 3.436 2.598-2.662 3.338-1.205 1.312 3.449v3z"></path>
    </symbol>
    <symbol id="icon-infinity" viewBox="0 0 20 20">
      <path d="M15.902 5.6c-2.079 0-4.358 1.158-5.902 2.916-1.545-1.758-3.825-2.916-5.904-2.916-1.98 0-4.096 1.156-4.096 4.4s2.116 4.398 4.096 4.4v0c2.079 0 4.358-1.158 5.903-2.916 1.544 1.758 3.823 2.916 5.902 2.916 1.981 0 4.099-1.156 4.099-4.4s-2.118-4.4-4.098-4.4zM4.096 12.641c-1.512 0-2.296-0.889-2.296-2.641s0.784-2.641 2.296-2.641c1.673 0 3.614 1.086 4.807 2.641-1.193 1.555-3.134 2.641-4.807 2.641zM15.902 12.641c-1.673 0-3.614-1.086-4.807-2.641 1.192-1.555 3.135-2.641 4.807-2.641 1.512 0 2.298 0.889 2.298 2.641s-0.786 2.641-2.298 2.641z"></path>
    </symbol>
    <symbol id="icon-info-with-circle" viewBox="0 0 20 20">
      <path d="M10 0.4c-5.303 0-9.601 4.298-9.601 9.6 0 5.303 4.298 9.601 9.601 9.601 5.301 0 9.6-4.298 9.6-9.601s-4.299-9.6-9.6-9.6zM10.896 3.866c0.936 0 1.211 0.543 1.211 1.164 0 0.775-0.62 1.492-1.679 1.492-0.886 0-1.308-0.445-1.282-1.182 0-0.621 0.519-1.474 1.75-1.474zM8.498 15.75c-0.64 0-1.107-0.389-0.66-2.094l0.733-3.025c0.127-0.484 0.148-0.678 0-0.678-0.191 0-1.022 0.334-1.512 0.664l-0.319-0.523c1.555-1.299 3.343-2.061 4.108-2.061 0.64 0 0.746 0.756 0.427 1.92l-0.84 3.18c-0.149 0.562-0.085 0.756 0.064 0.756 0.192 0 0.82-0.232 1.438-0.719l0.362 0.486c-1.513 1.512-3.162 2.094-3.801 2.094z"></path>
    </symbol>
    <symbol id="icon-keyboard" viewBox="0 0 20 20">
      <path d="M18.6 4h-17.2c-0.771 0-1.4 0.629-1.4 1.4v9.2c0 0.769 0.629 1.4 1.399 1.4h17.2c0.77 0 1.4-0.631 1.4-1.4v-9.2c0.001-0.771-0.63-1.4-1.399-1.4zM11 6h2v2h-2v-2zM14 9v2h-2v-2h2zM8 6h2v2h-2v-2zM11 9v2h-2v-2h2zM5 6h2v2h-2v-2zM8 9v2h-2v-2h2zM2 6h2v2h-2v-2zM5 9v2h-2v-2h2zM4 14h-2v-2h2v2zM15 14h-10v-2h10v2zM18 14h-2v-2h2v2zM15 11v-2h2v2h-2zM18 8h-4v-2h4v2z"></path>
    </symbol>
    <symbol id="icon-github-with-circle" viewBox="0 0 20 20">
      <path d="M10.015 9.949c0 0-0.010 0-0.015 0h-0.015c-1.191 0-2.24-0.303-2.861 0.268-0.371 0.342-0.527 0.754-0.527 1.197 0 1.852 1.483 2.080 3.389 2.080h0.029c1.905 0 3.389-0.229 3.389-2.080 0-0.443-0.156-0.856-0.527-1.197-0.622-0.571-1.671-0.268-2.862-0.268zM8.393 12.48c-0.363 0-0.656-0.408-0.656-0.91s0.293-0.908 0.656-0.908c0.363 0 0.657 0.406 0.657 0.908s-0.293 0.91-0.657 0.91zM11.606 12.48c-0.363 0-0.657-0.408-0.657-0.91s0.294-0.908 0.657-0.908c0.362 0 0.656 0.406 0.656 0.908s-0.293 0.91-0.656 0.91zM10 0.4c-5.302 0-9.6 4.298-9.6 9.6s4.298 9.6 9.6 9.6 9.6-4.298 9.6-9.6-4.298-9.6-9.6-9.6zM10.876 13.939c-0.172 0-0.514 0-0.876 0.002-0.362-0.002-0.704-0.002-0.876-0.002-0.76 0-3.772-0.059-3.772-3.689 0-0.834 0.286-1.445 0.755-1.955-0.074-0.184-0.078-1.232 0.32-2.236 0 0 0.916 0.1 2.301 1.051 0.289-0.081 0.781-0.122 1.272-0.122s0.982 0.041 1.273 0.121c1.385-0.951 2.301-1.051 2.301-1.051 0.398 1.004 0.395 2.053 0.32 2.236 0.469 0.51 0.755 1.121 0.755 1.955-0.001 3.632-3.013 3.69-3.773 3.69z"></path>
    </symbol>
    <symbol id="icon-github1" viewBox="0 0 20 20">
      <path d="M13.18 11.309c-0.718 0-1.3 0.807-1.3 1.799 0 0.994 0.582 1.801 1.3 1.801s1.3-0.807 1.3-1.801c-0.001-0.992-0.582-1.799-1.3-1.799zM17.706 6.626c0.149-0.365 0.155-2.439-0.635-4.426 0 0-1.811 0.199-4.551 2.080-0.575-0.16-1.548-0.238-2.519-0.238-0.973 0-1.945 0.078-2.52 0.238-2.741-1.881-4.552-2.080-4.552-2.080-0.789 1.987-0.781 4.061-0.634 4.426-0.928 1.008-1.495 2.219-1.495 3.871 0 7.186 5.963 7.301 7.467 7.301 0.342 0 1.018 0.002 1.734 0.002s1.392-0.002 1.732-0.002c1.506 0 7.467-0.115 7.467-7.301 0-1.652-0.566-2.863-1.494-3.871zM10.028 16.915h-0.056c-3.771 0-6.709-0.449-6.709-4.115 0-0.879 0.31-1.693 1.047-2.369 1.227-1.127 3.305-0.531 5.662-0.531 0.010 0 0.020 0 0.029 0s0.018 0 0.027 0c2.357 0 4.436-0.596 5.664 0.531 0.735 0.676 1.045 1.49 1.045 2.369 0 3.666-2.937 4.115-6.709 4.115zM6.821 11.309c-0.718 0-1.3 0.807-1.3 1.799 0 0.994 0.582 1.801 1.3 1.801s1.301-0.807 1.301-1.801c0-0.992-0.582-1.799-1.301-1.799z"></path>
    </symbol>
    <symbol id="icon-github11" viewBox="0 0 24 28">
      <path d="M12 2c6.625 0 12 5.375 12 12 0 5.297-3.437 9.797-8.203 11.391-0.609 0.109-0.828-0.266-0.828-0.578 0-0.391 0.016-1.687 0.016-3.297 0-1.125-0.375-1.844-0.812-2.219 2.672-0.297 5.484-1.313 5.484-5.922 0-1.313-0.469-2.375-1.234-3.219 0.125-0.313 0.531-1.531-0.125-3.187-1-0.313-3.297 1.234-3.297 1.234-0.953-0.266-1.984-0.406-3-0.406s-2.047 0.141-3 0.406c0 0-2.297-1.547-3.297-1.234-0.656 1.656-0.25 2.875-0.125 3.187-0.766 0.844-1.234 1.906-1.234 3.219 0 4.594 2.797 5.625 5.469 5.922-0.344 0.313-0.656 0.844-0.766 1.609-0.688 0.313-2.438 0.844-3.484-1-0.656-1.141-1.844-1.234-1.844-1.234-1.172-0.016-0.078 0.734-0.078 0.734 0.781 0.359 1.328 1.75 1.328 1.75 0.703 2.141 4.047 1.422 4.047 1.422 0 1 0.016 1.937 0.016 2.234 0 0.313-0.219 0.688-0.828 0.578-4.766-1.594-8.203-6.094-8.203-11.391 0-6.625 5.375-12 12-12zM4.547 19.234c0.031-0.063-0.016-0.141-0.109-0.187-0.094-0.031-0.172-0.016-0.203 0.031-0.031 0.063 0.016 0.141 0.109 0.187 0.078 0.047 0.172 0.031 0.203-0.031zM5.031 19.766c0.063-0.047 0.047-0.156-0.031-0.25-0.078-0.078-0.187-0.109-0.25-0.047-0.063 0.047-0.047 0.156 0.031 0.25 0.078 0.078 0.187 0.109 0.25 0.047zM5.5 20.469c0.078-0.063 0.078-0.187 0-0.297-0.063-0.109-0.187-0.156-0.266-0.094-0.078 0.047-0.078 0.172 0 0.281s0.203 0.156 0.266 0.109zM6.156 21.125c0.063-0.063 0.031-0.203-0.063-0.297-0.109-0.109-0.25-0.125-0.313-0.047-0.078 0.063-0.047 0.203 0.063 0.297 0.109 0.109 0.25 0.125 0.313 0.047zM7.047 21.516c0.031-0.094-0.063-0.203-0.203-0.25-0.125-0.031-0.266 0.016-0.297 0.109s0.063 0.203 0.203 0.234c0.125 0.047 0.266 0 0.297-0.094zM8.031 21.594c0-0.109-0.125-0.187-0.266-0.172-0.141 0-0.25 0.078-0.25 0.172 0 0.109 0.109 0.187 0.266 0.172 0.141 0 0.25-0.078 0.25-0.172zM8.937 21.438c-0.016-0.094-0.141-0.156-0.281-0.141-0.141 0.031-0.234 0.125-0.219 0.234 0.016 0.094 0.141 0.156 0.281 0.125s0.234-0.125 0.219-0.219z"></path>
    </symbol>
    <symbol id="icon-file-text-o" viewBox="0 0 24 28">
      <path d="M22.937 5.938c0.578 0.578 1.062 1.734 1.062 2.562v18c0 0.828-0.672 1.5-1.5 1.5h-21c-0.828 0-1.5-0.672-1.5-1.5v-25c0-0.828 0.672-1.5 1.5-1.5h14c0.828 0 1.984 0.484 2.562 1.062zM16 2.125v5.875h5.875c-0.094-0.266-0.234-0.531-0.344-0.641l-4.891-4.891c-0.109-0.109-0.375-0.25-0.641-0.344zM22 26v-16h-6.5c-0.828 0-1.5-0.672-1.5-1.5v-6.5h-12v24h20zM6 12.5c0-0.281 0.219-0.5 0.5-0.5h11c0.281 0 0.5 0.219 0.5 0.5v1c0 0.281-0.219 0.5-0.5 0.5h-11c-0.281 0-0.5-0.219-0.5-0.5v-1zM17.5 16c0.281 0 0.5 0.219 0.5 0.5v1c0 0.281-0.219 0.5-0.5 0.5h-11c-0.281 0-0.5-0.219-0.5-0.5v-1c0-0.281 0.219-0.5 0.5-0.5h11zM17.5 20c0.281 0 0.5 0.219 0.5 0.5v1c0 0.281-0.219 0.5-0.5 0.5h-11c-0.281 0-0.5-0.219-0.5-0.5v-1c0-0.281 0.219-0.5 0.5-0.5h11z"></path>
    </symbol>
    <symbol id="icon-file-text" viewBox="0 0 24 28">
      <path d="M22.937 7.438c0.156 0.156 0.297 0.344 0.438 0.562h-7.375v-7.375c0.219 0.141 0.406 0.281 0.562 0.438zM15.5 10h8.5v16.5c0 0.828-0.672 1.5-1.5 1.5h-21c-0.828 0-1.5-0.672-1.5-1.5v-25c0-0.828 0.672-1.5 1.5-1.5h12.5v8.5c0 0.828 0.672 1.5 1.5 1.5zM18 21.5v-1c0-0.281-0.219-0.5-0.5-0.5h-11c-0.281 0-0.5 0.219-0.5 0.5v1c0 0.281 0.219 0.5 0.5 0.5h11c0.281 0 0.5-0.219 0.5-0.5zM18 17.5v-1c0-0.281-0.219-0.5-0.5-0.5h-11c-0.281 0-0.5 0.219-0.5 0.5v1c0 0.281 0.219 0.5 0.5 0.5h11c0.281 0 0.5-0.219 0.5-0.5zM18 13.5v-1c0-0.281-0.219-0.5-0.5-0.5h-11c-0.281 0-0.5 0.219-0.5 0.5v1c0 0.281 0.219 0.5 0.5 0.5h11c0.281 0 0.5-0.219 0.5-0.5z"></path>
    </symbol>
    <symbol id="icon-moon-o" viewBox="0 0 23 28">
      <path d="M19.719 20.359c-0.562 0.094-1.141 0.141-1.719 0.141-5.797 0-10.5-4.703-10.5-10.5 0-1.984 0.578-3.922 1.625-5.578-4.156 1.234-7.125 5.047-7.125 9.578 0 5.516 4.484 10 10 10 3.016 0 5.844-1.375 7.719-3.641zM22.891 19.031c-1.953 4.234-6.234 6.969-10.891 6.969-6.609 0-12-5.391-12-12 0-6.484 5.078-11.75 11.547-11.984 0.438-0.016 0.797 0.234 0.953 0.609 0.172 0.391 0.063 0.844-0.234 1.125-1.781 1.625-2.766 3.844-2.766 6.25 0 4.688 3.813 8.5 8.5 8.5 1.234 0 2.422-0.266 3.563-0.797 0.391-0.172 0.828-0.094 1.125 0.203s0.375 0.75 0.203 1.125z"></path>
    </symbol>
    <symbol id="icon-email1" viewBox="0 0 24 24">
      <path d="M20.016 8.016v-2.016l-8.016 5.016-8.016-5.016v2.016l8.016 4.969zM20.016 3.984q0.797 0 1.383 0.609t0.586 1.406v12q0 0.797-0.586 1.406t-1.383 0.609h-16.031q-0.797 0-1.383-0.609t-0.586-1.406v-12q0-0.797 0.586-1.406t1.383-0.609h16.031z"></path>
    </symbol>
    <symbol id="icon-mail_outline" viewBox="0 0 24 24">
      <path d="M12 11.016l8.016-5.016h-16.031zM20.016 18v-9.984l-8.016 4.969-8.016-4.969v9.984h16.031zM20.016 3.984q0.797 0 1.383 0.609t0.586 1.406v12q0 0.797-0.586 1.406t-1.383 0.609h-16.031q-0.797 0-1.383-0.609t-0.586-1.406v-12q0-0.797 0.586-1.406t1.383-0.609h16.031z"></path>
    </symbol>
    <symbol id="icon-alternate_email" viewBox="0 0 24 24">
      <path d="M12 15q1.219 0 2.109-0.891t0.891-2.109-0.891-2.109-2.109-0.891-2.109 0.891-0.891 2.109 0.891 2.109 2.109 0.891zM12 2.016q4.125 0 7.055 2.93t2.93 7.055v1.453q0 1.5-1.008 2.531t-2.461 1.031q-1.828 0-2.953-1.5-1.5 1.5-3.563 1.5t-3.539-1.477-1.477-3.539 1.477-3.539 3.539-1.477 3.539 1.477 1.477 3.539v1.453q0 0.609 0.445 1.078t1.055 0.469 1.055-0.469 0.445-1.078v-1.453q0-3.281-2.367-5.648t-5.648-2.367-5.648 2.367-2.367 5.648 2.367 5.648 5.648 2.367h5.016v1.969h-5.016q-4.125 0-7.055-2.93t-2.93-7.055 2.93-7.055 7.055-2.93z"></path>
    </symbol>
    <symbol id="icon-clear" viewBox="0 0 24 24">
      <path d="M18.984 6.422l-5.578 5.578 5.578 5.578-1.406 1.406-5.578-5.578-5.578 5.578-1.406-1.406 5.578-5.578-5.578-5.578 1.406-1.406 5.578 5.578 5.578-5.578z"></path>
    </symbol>
    <symbol id="icon-sort" viewBox="0 0 24 24">
      <path d="M3 12.984v-1.969h12v1.969h-12zM3 6h18v2.016h-18v-2.016zM3 18v-2.016h6v2.016h-6z"></path>
    </symbol>
    <symbol id="icon-save_alt" viewBox="0 0 24 24">
      <path d="M12.984 12.656l2.625-2.578 1.406 1.406-5.016 5.016-5.016-5.016 1.406-1.406 2.625 2.578v-9.656h1.969v9.656zM18.984 12h2.016v6.984q0 0.797-0.609 1.406t-1.406 0.609h-13.969q-0.797 0-1.406-0.609t-0.609-1.406v-6.984h2.016v6.984h13.969v-6.984z"></path>
    </symbol>
    <symbol id="icon-brightness_medium" viewBox="0 0 24 24">
      <path d="M12 18q2.484 0 4.242-1.758t1.758-4.242-1.758-4.242-4.242-1.758v12zM20.016 15.328v4.688h-4.688l-3.328 3.281-3.328-3.281h-4.688v-4.688l-3.281-3.328 3.281-3.328v-4.688h4.688l3.328-3.281 3.328 3.281h4.688v4.688l3.281 3.328z"></path>
    </symbol>
    <symbol id="icon-insert_drive_file" viewBox="0 0 24 24">
      <path d="M12.984 9h5.531l-5.531-5.484v5.484zM6 2.016h8.016l6 6v12q0 0.797-0.609 1.383t-1.406 0.586h-12q-0.797 0-1.406-0.586t-0.609-1.383l0.047-16.031q0-0.797 0.586-1.383t1.383-0.586z"></path>
    </symbol>
    <symbol id="icon-cloud_download" viewBox="0 0 24 24">
      <path d="M17.016 12.984h-3v-3.984h-4.031v3.984h-3l5.016 5.016zM19.359 10.031q1.922 0.141 3.281 1.57t1.359 3.398q0 2.063-1.477 3.539t-3.539 1.477h-12.984q-2.484 0-4.242-1.758t-1.758-4.242q0-2.203 1.57-3.961t3.773-1.992q0.984-1.828 2.766-2.953t3.891-1.125q2.531 0 4.711 1.781t2.648 4.266z"></path>
    </symbol>
    <symbol id="icon-file_download" viewBox="0 0 24 24">
      <path d="M5.016 18h13.969v2.016h-13.969v-2.016zM18.984 9l-6.984 6.984-6.984-6.984h3.984v-6h6v6h3.984z"></path>
    </symbol>
    <symbol id="icon-file_upload" viewBox="0 0 24 24">
      <path d="M5.016 18h13.969v2.016h-13.969v-2.016zM9 15.984v-6h-3.984l6.984-6.984 6.984 6.984h-3.984v6h-6z"></path>
    </symbol>
    <symbol id="icon-keyboard1" viewBox="0 0 24 24">
      <path d="M18.984 9.984v-1.969h-1.969v1.969h1.969zM18.984 12.984v-1.969h-1.969v1.969h1.969zM15.984 9.984v-1.969h-1.969v1.969h1.969zM15.984 12.984v-1.969h-1.969v1.969h1.969zM15.984 17.016v-2.016h-7.969v2.016h7.969zM6.984 9.984v-1.969h-1.969v1.969h1.969zM6.984 12.984v-1.969h-1.969v1.969h1.969zM8.016 11.016v1.969h1.969v-1.969h-1.969zM8.016 8.016v1.969h1.969v-1.969h-1.969zM11.016 11.016v1.969h1.969v-1.969h-1.969zM11.016 8.016v1.969h1.969v-1.969h-1.969zM20.016 5.016q0.797 0 1.383 0.586t0.586 1.383v10.031q0 0.797-0.586 1.383t-1.383 0.586h-16.031q-0.797 0-1.383-0.586t-0.586-1.383v-10.031q0-0.797 0.586-1.383t1.383-0.586h16.031z"></path>
    </symbol>
    <symbol id="icon-keyboard_arrow_down" viewBox="0 0 24 24">
      <path d="M7.406 8.578l4.594 4.594 4.594-4.594 1.406 1.406-6 6-6-6z"></path>
    </symbol>
    <symbol id="icon-keyboard_arrow_left" viewBox="0 0 24 24">
      <path d="M15.422 16.594l-1.406 1.406-6-6 6-6 1.406 1.406-4.594 4.594z"></path>
    </symbol>
    <symbol id="icon-keyboard_arrow_right" viewBox="0 0 24 24">
      <path d="M8.578 16.594l4.594-4.594-4.594-4.594 1.406-1.406 6 6-6 6z"></path>
    </symbol>
    <symbol id="icon-keyboard_arrow_up" viewBox="0 0 24 24">
      <path d="M7.406 15.422l-1.406-1.406 6-6 6 6-1.406 1.406-4.594-4.594z"></path>
    </symbol>
    <symbol id="icon-keyboard_hide" viewBox="0 0 24 24">
      <path d="M12 23.016l-3.984-4.031h7.969zM18.984 8.016v-2.016h-1.969v2.016h1.969zM18.984 11.016v-2.016h-1.969v2.016h1.969zM15.984 8.016v-2.016h-1.969v2.016h1.969zM15.984 11.016v-2.016h-1.969v2.016h1.969zM15.984 15v-2.016h-7.969v2.016h7.969zM6.984 8.016v-2.016h-1.969v2.016h1.969zM6.984 11.016v-2.016h-1.969v2.016h1.969zM8.016 9v2.016h1.969v-2.016h-1.969zM8.016 6v2.016h1.969v-2.016h-1.969zM11.016 9v2.016h1.969v-2.016h-1.969zM11.016 6v2.016h1.969v-2.016h-1.969zM20.016 3q0.797 0 1.383 0.609t0.586 1.406v9.984q0 0.797-0.586 1.406t-1.383 0.609h-16.031q-0.797 0-1.383-0.609t-0.586-1.406v-9.984q0-0.797 0.586-1.406t1.383-0.609h16.031z"></path>
    </symbol>
    <symbol id="icon-brightness_2" viewBox="0 0 24 24">
      <path d="M9.984 2.016q4.172 0 7.102 2.93t2.93 7.055-2.93 7.055-7.102 2.93q-2.719 0-4.969-1.313 2.297-1.313 3.633-3.633t1.336-5.039-1.336-5.039-3.633-3.633q2.25-1.313 4.969-1.313z"></path>
    </symbol>
    <symbol id="icon-brightness_3" viewBox="0 0 24 24">
      <path d="M9 2.016q4.125 0 7.055 2.93t2.93 7.055-2.93 7.055-7.055 2.93q-1.594 0-3-0.422 3.094-0.938 5.039-3.586t1.945-5.977-1.945-5.977-5.039-3.586q1.406-0.422 3-0.422z"></path>
    </symbol>
    <symbol id="icon-brightness_4" viewBox="0 0 24 24">
      <path d="M12 18q2.484 0 4.242-1.758t1.758-4.242-1.758-4.242-4.242-1.758q-1.219 0-2.484 0.563 1.547 0.703 2.508 2.18t0.961 3.258-0.961 3.258-2.508 2.18q1.266 0.563 2.484 0.563zM20.016 8.672l3.281 3.328-3.281 3.328v4.688h-4.688l-3.328 3.281-3.328-3.281h-4.688v-4.688l-3.281-3.328 3.281-3.328v-4.688h4.688l3.328-3.281 3.328 3.281h4.688v4.688z"></path>
    </symbol>
    <symbol id="icon-wb_sunny" viewBox="0 0 24 24">
      <path d="M3.563 18.563l1.781-1.828 1.406 1.406-1.781 1.828zM11.016 22.453v-2.953h1.969v2.953h-1.969zM12 5.484q2.484 0 4.242 1.758t1.758 4.242-1.758 4.242-4.242 1.758-4.242-1.758-1.758-4.242 1.758-4.242 4.242-1.758zM20.016 10.5h3v2.016h-3v-2.016zM17.25 18.141l1.406-1.359 1.781 1.781-1.406 1.406zM20.438 4.453l-1.781 1.781-1.406-1.406 1.781-1.781zM12.984 0.563v2.953h-1.969v-2.953h1.969zM3.984 10.5v2.016h-3v-2.016h3zM6.75 4.828l-1.406 1.406-1.781-1.781 1.406-1.406z"></path>
    </symbol>
    <symbol id="icon-arrow_drop_down" viewBox="0 0 24 24">
      <path d="M6.984 9.984h10.031l-5.016 5.016z"></path>
    </symbol>
    <symbol id="icon-arrow_drop_up" viewBox="0 0 24 24">
      <path d="M6.984 14.016l5.016-5.016 5.016 5.016h-10.031z"></path>
    </symbol>
    <symbol id="icon-check1" viewBox="0 0 24 24">
      <path d="M9 16.172l10.594-10.594 1.406 1.406-12 12-5.578-5.578 1.406-1.406z"></path>
    </symbol>
    <symbol id="icon-expand_less" viewBox="0 0 24 24">
      <path d="M12 8.016l6 6-1.406 1.406-4.594-4.594-4.594 4.594-1.406-1.406z"></path>
    </symbol>
    <symbol id="icon-expand_more" viewBox="0 0 24 24">
      <path d="M16.594 8.578l1.406 1.406-6 6-6-6 1.406-1.406 4.594 4.594z"></path>
    </symbol>
    <symbol id="icon-menu1" viewBox="0 0 24 24">
      <path d="M3 6h18v2.016h-18v-2.016zM3 12.984v-1.969h18v1.969h-18zM3 18v-2.016h18v2.016h-18z"></path>
    </symbol>
    <symbol id="icon-keyboard_control" viewBox="0 0 24 24">
      <path d="M12 9.984q0.797 0 1.406 0.609t0.609 1.406-0.609 1.406-1.406 0.609-1.406-0.609-0.609-1.406 0.609-1.406 1.406-0.609zM18 9.984q0.797 0 1.406 0.609t0.609 1.406-0.609 1.406-1.406 0.609-1.406-0.609-0.609-1.406 0.609-1.406 1.406-0.609zM6 9.984q0.797 0 1.406 0.609t0.609 1.406-0.609 1.406-1.406 0.609-1.406-0.609-0.609-1.406 0.609-1.406 1.406-0.609z"></path>
    </symbol>
    <symbol id="icon-more_vert" viewBox="0 0 24 24">
      <path d="M12 15.984q0.797 0 1.406 0.609t0.609 1.406-0.609 1.406-1.406 0.609-1.406-0.609-0.609-1.406 0.609-1.406 1.406-0.609zM12 9.984q0.797 0 1.406 0.609t0.609 1.406-0.609 1.406-1.406 0.609-1.406-0.609-0.609-1.406 0.609-1.406 1.406-0.609zM12 8.016q-0.797 0-1.406-0.609t-0.609-1.406 0.609-1.406 1.406-0.609 1.406 0.609 0.609 1.406-0.609 1.406-1.406 0.609z"></path>
    </symbol>
    <symbol id="icon-refresh" viewBox="0 0 24 24">
      <path d="M17.672 6.328l2.344-2.344v7.031h-7.031l3.234-3.234q-1.781-1.781-4.219-1.781-2.484 0-4.242 1.758t-1.758 4.242 1.758 4.242 4.242 1.758q1.734 0 3.398-1.172t2.273-2.813h2.063q-0.656 2.625-2.813 4.313t-4.922 1.688q-3.281 0-5.625-2.344t-2.344-5.672 2.344-5.672 5.625-2.344q1.406 0 3.070 0.68t2.602 1.664z"></path>
    </symbol>
    <symbol id="icon-unfold_less" viewBox="0 0 24 24">
      <path d="M16.594 5.391l-4.594 4.594-4.594-4.594 1.406-1.406 3.188 3.188 3.188-3.188zM7.406 18.609l4.594-4.594 4.594 4.594-1.406 1.406-3.188-3.188-3.188 3.188z"></path>
    </symbol>
    <symbol id="icon-unfold_more" viewBox="0 0 24 24">
      <path d="M12 18.188l3.188-3.188 1.406 1.406-4.594 4.594-4.594-4.594 1.406-1.406zM12 5.813l-3.188 3.188-1.406-1.406 4.594-4.594 4.594 4.594-1.406 1.406z"></path>
    </symbol>
    <symbol id="icon-bubble_chart" viewBox="0 0 24 24">
      <path d="M10.406 8.813q0-2.016 1.383-3.422t3.398-1.406 3.422 1.406 1.406 3.422-1.406 3.398-3.422 1.383-3.398-1.383-1.383-3.398zM12.797 18q0-0.844 0.586-1.43t1.43-0.586 1.406 0.586 0.563 1.43-0.563 1.43-1.406 0.586-1.43-0.586-0.586-1.43zM3.984 14.391q0-1.313 0.938-2.25t2.297-0.938q1.313 0 2.25 0.914t0.938 2.273-0.938 2.273-2.25 0.914q-1.359 0-2.297-0.938t-0.938-2.25z"></path>
    </symbol>
    <symbol id="icon-share" viewBox="0 0 24 24">
      <path d="M18 16.078q1.219 0 2.063 0.867t0.844 2.039q0 1.219-0.867 2.086t-2.039 0.867-2.039-0.867-0.867-2.086q0-0.469 0.047-0.656l-7.078-4.125q-0.891 0.797-2.063 0.797-1.219 0-2.109-0.891t-0.891-2.109 0.891-2.109 2.109-0.891q1.172 0 2.063 0.797l7.031-4.078q-0.094-0.469-0.094-0.703 0-1.219 0.891-2.109t2.109-0.891 2.109 0.891 0.891 2.109-0.891 2.109-2.109 0.891q-1.125 0-2.063-0.844l-7.031 4.125q0.094 0.469 0.094 0.703t-0.094 0.703l7.125 4.125q0.844-0.75 1.969-0.75z"></path>
    </symbol>
    <symbol id="icon-check_circle" viewBox="0 0 24 24">
      <path d="M9.984 17.016l9-9-1.406-1.453-7.594 7.594-3.563-3.563-1.406 1.406zM12 2.016q4.125 0 7.055 2.93t2.93 7.055-2.93 7.055-7.055 2.93-7.055-2.93-2.93-7.055 2.93-7.055 7.055-2.93z"></path>
    </symbol>
    <symbol id="icon-dashboard" viewBox="0 0 24 24">
      <path d="M12.984 3h8.016v6h-8.016v-6zM12.984 21v-9.984h8.016v9.984h-8.016zM3 21v-6h8.016v6h-8.016zM3 12.984v-9.984h8.016v9.984h-8.016z"></path>
    </symbol>
    <symbol id="icon-delete" viewBox="0 0 24 24">
      <path d="M18.984 3.984v2.016h-13.969v-2.016h3.469l1.031-0.984h4.969l1.031 0.984h3.469zM6 18.984v-12h12v12q0 0.797-0.609 1.406t-1.406 0.609h-7.969q-0.797 0-1.406-0.609t-0.609-1.406z"></path>
    </symbol>
    <symbol id="icon-description" viewBox="0 0 24 24">
      <path d="M12.984 9h5.531l-5.531-5.484v5.484zM15.984 14.016v-2.016h-7.969v2.016h7.969zM15.984 18v-2.016h-7.969v2.016h7.969zM14.016 2.016l6 6v12q0 0.797-0.609 1.383t-1.406 0.586h-12q-0.797 0-1.406-0.586t-0.609-1.383l0.047-16.031q0-0.797 0.586-1.383t1.383-0.586h8.016z"></path>
    </symbol>
    <symbol id="icon-dns" viewBox="0 0 24 24">
      <path d="M6.984 9q0.797 0 1.406-0.609t0.609-1.406-0.609-1.383-1.406-0.586-1.383 0.586-0.586 1.383 0.586 1.406 1.383 0.609zM20.016 3q0.422 0 0.703 0.281t0.281 0.703v6q0 0.422-0.281 0.727t-0.703 0.305h-16.031q-0.422 0-0.703-0.305t-0.281-0.727v-6q0-0.422 0.281-0.703t0.703-0.281h16.031zM6.984 18.984q0.797 0 1.406-0.586t0.609-1.383-0.609-1.406-1.406-0.609-1.383 0.609-0.586 1.406 0.586 1.383 1.383 0.586zM20.016 12.984q0.422 0 0.703 0.305t0.281 0.727v6q0 0.422-0.281 0.703t-0.703 0.281h-16.031q-0.422 0-0.703-0.281t-0.281-0.703v-6q0-0.422 0.281-0.727t0.703-0.305h16.031z"></path>
    </symbol>
    <symbol id="icon-done" viewBox="0 0 24 24">
      <path d="M9 16.219l10.594-10.641 1.406 1.406-12 12-5.578-5.578 1.359-1.406z"></path>
    </symbol>
    <symbol id="icon-done_all" viewBox="0 0 24 24">
      <path d="M0.422 13.406l1.406-1.406 5.578 5.578-1.406 1.406zM22.219 5.578l1.453 1.406-12 12-5.625-5.578 1.453-1.406 4.172 4.172zM18 6.984l-6.328 6.375-1.406-1.406 6.328-6.375z"></path>
    </symbol>
    <symbol id="icon-exit_to_app" viewBox="0 0 24 24">
      <path d="M18.984 3q0.797 0 1.406 0.609t0.609 1.406v13.969q0 0.797-0.609 1.406t-1.406 0.609h-13.969q-0.844 0-1.43-0.586t-0.586-1.43v-3.984h2.016v3.984h13.969v-13.969h-13.969v3.984h-2.016v-3.984q0-0.844 0.586-1.43t1.43-0.586h13.969zM10.078 15.609l2.578-2.625h-9.656v-1.969h9.656l-2.578-2.625 1.406-1.406 5.016 5.016-5.016 5.016z"></path>
    </symbol>
    <symbol id="icon-search" viewBox="0 0 24 24">
      <path d="M9.516 14.016q1.875 0 3.188-1.313t1.313-3.188-1.313-3.188-3.188-1.313-3.188 1.313-1.313 3.188 1.313 3.188 3.188 1.313zM15.516 14.016l4.969 4.969-1.5 1.5-4.969-4.969v-0.797l-0.281-0.281q-1.781 1.547-4.219 1.547-2.719 0-4.617-1.875t-1.898-4.594 1.898-4.617 4.617-1.898 4.594 1.898 1.875 4.617q0 0.984-0.469 2.227t-1.078 1.992l0.281 0.281h0.797z"></path>
    </symbol>
    <symbol id="icon-settings" viewBox="0 0 24 24">
      <path d="M12 15.516q1.453 0 2.484-1.031t1.031-2.484-1.031-2.484-2.484-1.031-2.484 1.031-1.031 2.484 1.031 2.484 2.484 1.031zM19.453 12.984l2.109 1.641q0.328 0.234 0.094 0.656l-2.016 3.469q-0.188 0.328-0.609 0.188l-2.484-0.984q-0.984 0.703-1.688 0.984l-0.375 2.625q-0.094 0.422-0.469 0.422h-4.031q-0.375 0-0.469-0.422l-0.375-2.625q-0.891-0.375-1.688-0.984l-2.484 0.984q-0.422 0.141-0.609-0.188l-2.016-3.469q-0.234-0.422 0.094-0.656l2.109-1.641q-0.047-0.328-0.047-0.984t0.047-0.984l-2.109-1.641q-0.328-0.234-0.094-0.656l2.016-3.469q0.188-0.328 0.609-0.188l2.484 0.984q0.984-0.703 1.688-0.984l0.375-2.625q0.094-0.422 0.469-0.422h4.031q0.375 0 0.469 0.422l0.375 2.625q0.891 0.375 1.688 0.984l2.484-0.984q0.422-0.141 0.609 0.188l2.016 3.469q0.234 0.422-0.094 0.656l-2.109 1.641q0.047 0.328 0.047 0.984t-0.047 0.984z"></path>
    </symbol>
    <symbol id="icon-copyright" viewBox="0 0 24 24">
      <path d="M12 20.016q3.281 0 5.648-2.367t2.367-5.648-2.367-5.648-5.648-2.367-5.648 2.367-2.367 5.648 2.367 5.648 5.648 2.367zM12 2.016q4.125 0 7.055 2.93t2.93 7.055-2.93 7.055-7.055 2.93-7.055-2.93-2.93-7.055 2.93-7.055 7.055-2.93zM11.859 9.141q-1.875 0-1.875 2.719v0.281q0 2.719 1.875 2.719 0.703 0 1.172-0.398t0.469-1.008h1.781q0 1.172-1.031 2.063-0.984 0.844-2.391 0.844-1.875 0-2.859-1.125t-0.984-3.094v-0.281q0-1.922 0.938-3 1.125-1.266 2.906-1.266 1.547 0 2.438 0.891 0.984 0.984 0.984 2.297h-1.781q0-0.328-0.141-0.609-0.234-0.469-0.328-0.563-0.469-0.469-1.172-0.469z"></path>
    </symbol>
    <symbol id="icon-drive_file_rename_outline" viewBox="0 0 24 24">
      <path d="M11.016 20.016l3.984-4.031h6v4.031h-9.984zM6.188 18l8.672-8.672-1.219-1.219-8.625 8.672v1.219h1.172zM18.422 5.813q0.609 0.609 0.609 1.406t-0.609 1.406l-11.391 11.391h-4.031v-4.078q11.25-11.203 11.391-11.344 0.609-0.609 1.406-0.609t1.406 0.609z"></path>
    </symbol>
    <symbol id="icon-logout" viewBox="0 0 24 24">
      <path d="M3.984 5.016v13.969h8.016v2.016h-8.016q-0.797 0-1.383-0.609t-0.586-1.406v-13.969q0-0.797 0.586-1.406t1.383-0.609h8.016v2.016h-8.016zM17.016 6.984l4.969 5.016-4.969 5.016-1.406-1.453 2.578-2.578h-10.172v-1.969h10.172l-2.578-2.625z"></path>
    </symbol>
    <symbol id="icon-nights_stay" viewBox="0 0 24 24">
      <path d="M6.984 15.984q0.797 0 1.406 0.609t0.609 1.406-0.609 1.406-1.406 0.609h-3q-1.219 0-2.109-0.891t-0.891-2.109 0.891-2.109 2.109-0.891q2.109 0 2.813 1.969h0.188zM11.109 12.094q1.547 3 4.289 4.313t4.945 1.078q-1.359 2.109-3.563 3.328t-4.781 1.219q-1.594 0-3.141-0.516 2.156-1.219 2.156-3.516 0-1.266-0.844-2.367t-2.063-1.477q-1.547-2.156-4.125-2.156-1.078 0-1.969 0.422 0-0.047-0.023-0.188t-0.023-0.234q0-4.031 2.813-6.938t6.844-3.047q-0.703 1.078-1.172 2.344t-0.445 3.469 1.102 4.266z"></path>
    </symbol>
    <symbol id="icon-construction" viewBox="0 0 24 24">
      <path d="M13.781 15.188l2.109-2.156 6 6-2.109 2.156zM17.484 9.984q0.984 0 1.781-0.469t1.266-1.266 0.469-1.734q0-0.469-0.117-0.867t-0.305-0.727l-2.672 2.672-1.5-1.5 2.672-2.672q-0.328-0.188-0.727-0.305t-0.867-0.117q-0.938 0-1.734 0.469t-1.266 1.266-0.469 1.781q0 0.563 0.188 1.125l-1.828 1.875-1.781-1.781 0.703-0.703-1.406-1.406 2.109-2.156q-0.563-0.563-1.336-0.75t-1.547 0-1.336 0.75l-3.563 3.563 1.406 1.406h-2.813l-0.703 0.703 3.516 3.563 0.703-0.703v-2.859l1.453 1.406 0.703-0.703 1.781 1.781-7.406 7.406 2.109 2.109 11.391-11.344q0.563 0.188 1.125 0.188z"></path>
    </symbol>
    <symbol id="icon-login1" viewBox="0 0 24 24">
      <path d="M11.016 6.984l-1.406 1.406 2.578 2.625h-10.172v1.969h10.172l-2.578 2.625 1.406 1.406 4.969-5.016zM20.016 18.984h-8.016v2.016h8.016q0.797 0 1.383-0.586t0.586-1.43v-13.969q0-0.844-0.586-1.43t-1.383-0.586h-8.016v2.016h8.016v13.969z"></path>
    </symbol>
    <symbol id="icon-mark_email_read" viewBox="0 0 24 24">
      <path d="M12 18.984q0-1.453 0.539-2.719t1.5-2.227 2.227-1.5 2.719-0.539q0.844 0 1.594 0.188t1.406 0.516v-6.703q0-0.844-0.586-1.43t-1.383-0.586h-16.031q-0.797 0-1.383 0.586t-0.586 1.43v12q0 0.844 0.586 1.43t1.383 0.586h8.109q-0.094-0.563-0.094-1.031zM3.984 6l8.016 5.016 8.016-5.016v2.016l-8.016 4.969-8.016-4.969v-2.016zM17.344 21.984l-3.563-3.516 1.406-1.406 2.156 2.109 4.219-4.219 1.453 1.406z"></path>
    </symbol>
    <symbol id="icon-mark_email_unread" viewBox="0 0 24 24">
      <path d="M21.984 9v9q0 0.844-0.586 1.43t-1.383 0.586h-16.031q-0.797 0-1.383-0.586t-0.586-1.43v-12q0-0.844 0.586-1.43t1.383-0.586h10.125q-0.047 0.234-0.070 0.492t-0.023 0.539q0 1.078 0.445 2.039t1.195 1.664l-3.656 2.297-8.016-5.016v2.016l8.016 4.969 5.297-3.281q0.422 0.141 0.844 0.211t0.844 0.070q0.844 0 1.617-0.258t1.383-0.727zM15.984 5.016q0 0.797 0.422 1.477t1.102 1.102 1.477 0.422q0.844 0 1.523-0.422t1.078-1.102 0.398-1.477q0-0.844-0.398-1.523t-1.078-1.078-1.523-0.398q-0.797 0-1.477 0.398t-1.102 1.078-0.422 1.523z"></path>
    </symbol>
    <symbol id="icon-nightlight_round" viewBox="0 0 24 24">
      <path d="M12 12q0-1.781 0.68-3.352t1.875-2.742 2.742-1.781q0.469-0.188 0.586-0.586t-0.094-0.797-0.68-0.492q-0.797-0.188-1.664-0.234t-1.805 0.094q-1.688 0.188-3.164 0.961t-2.625 1.969-1.875 2.695-0.914 3.188q-0.234 2.25 0.445 4.242t2.086 3.539 3.305 2.414 4.102 0.867q1.078 0 2.109-0.234 0.516-0.094 0.703-0.469t0.070-0.797-0.539-0.609q-1.641-0.656-2.836-1.852t-1.852-2.742-0.656-3.281v0z"></path>
    </symbol>
    <symbol id="icon-outgoing_mail" viewBox="0 0 24 24">
      <path d="M18.516 11.016h0.469v-4.125q0-0.797-0.539-1.336t-1.336-0.539h-13.219q-0.797 0-1.336 0.539t-0.539 1.336v10.219q0 0.797 0.539 1.336t1.336 0.539h9.703q-0.281-0.563-0.445-1.195t-0.164-1.289q0-1.5 0.75-2.766t1.992-1.992 2.789-0.727zM10.406 12.984l-6.422-3.797v-2.203h0.234l6.188 3.703 6.328-3.703h0.281v2.156zM18.984 12.984l-1.406 1.406 1.594 1.594h-4.172v2.016h4.172l-1.594 1.594 1.406 1.406 4.031-3.984z"></path>
    </symbol>
  </defs>
</svg>
